<svg width="207" height="40" viewBox="0 0 207 40" fill="none" xmlns="http://www.w3.org/2000/svg">
<path d="M34.1422 5.85781C30.3647 2.08031 25.3422 0 20 0C14.6578 0 9.63531 2.08031 5.85781 5.85781C2.08031 9.63531 0 14.6578 0 20C0 25.3422 2.08039 30.3646 5.85781 34.1422C9.63523 37.9198 14.6578 40 20 40C25.3422 40 30.3647 37.9197 34.1422 34.1422C37.9197 30.3647 40 25.3422 40 20C40 14.6578 37.9196 9.63539 34.1422 5.85781Z" fill="#33CC95"/>
<path d="M19.8571 7V32.1429" stroke="white" stroke-width="2" stroke-linecap="round" stroke-linejoin="round"/>
<path d="M25.5714 11.5714H17C15.9391 11.5714 14.9217 11.9929 14.1716 12.743C13.4214 13.4931 13 14.5106 13 15.5714C13 16.6323 13.4214 17.6497 14.1716 18.3999C14.9217 19.15 15.9391 19.5714 17 19.5714H22.7143C23.7751 19.5714 24.7926 19.9929 25.5427 20.743C26.2929 21.4932 26.7143 22.5106 26.7143 23.5714C26.7143 24.6323 26.2929 25.6497 25.5427 26.3999C24.7926 27.15 23.7751 27.5714 22.7143 27.5714H13" stroke="white" stroke-width="2" stroke-linecap="round" stroke-linejoin="round"/>
<path d="M64.968 11.248V21.616C64.968 22.752 65.264 23.624 65.856 24.232C66.448 24.824 67.28 25.12 68.352 25.12C69.44 25.12 70.28 24.824 70.872 24.232C71.464 23.624 71.76 22.752 71.76 21.616V11.248H75.144V21.592C75.144 23.016 74.832 24.224 74.208 25.216C73.6 26.192 72.776 26.928 71.736 27.424C70.712 27.92 69.568 28.168 68.304 28.168C67.056 28.168 65.92 27.92 64.896 27.424C63.888 26.928 63.088 26.192 62.496 25.216C61.904 24.224 61.608 23.016 61.608 21.592V11.248H64.968ZM81.7504 10.24V28H78.3904V10.24H81.7504ZM88.9821 17.464V23.896C88.9821 24.344 89.0861 24.672 89.2941 24.88C89.5181 25.072 89.8861 25.168 90.3981 25.168H91.9581V28H89.8461C87.0141 28 85.5981 26.624 85.5981 23.872V17.464H84.0141V14.704H85.5981V11.416H88.9821V14.704H91.9581V17.464H88.9821ZM97.7348 16.768C98.1668 16.064 98.7268 15.512 99.4148 15.112C100.119 14.712 100.919 14.512 101.815 14.512V18.04H100.927C99.8708 18.04 99.0708 18.288 98.5268 18.784C97.9988 19.28 97.7348 20.144 97.7348 21.376V28H94.3748V14.704H97.7348V16.768ZM103.214 21.304C103.214 19.96 103.478 18.768 104.006 17.728C104.55 16.688 105.278 15.888 106.19 15.328C107.118 14.768 108.15 14.488 109.286 14.488C110.278 14.488 111.142 14.688 111.878 15.088C112.63 15.488 113.23 15.992 113.678 16.6V14.704H117.062V28H113.678V26.056C113.246 26.68 112.646 27.2 111.878 27.616C111.126 28.016 110.254 28.216 109.262 28.216C108.142 28.216 107.118 27.928 106.19 27.352C105.278 26.776 104.55 25.968 104.006 24.928C103.478 23.872 103.214 22.664 103.214 21.304ZM113.678 21.352C113.678 20.536 113.518 19.84 113.198 19.264C112.878 18.672 112.446 18.224 111.902 17.92C111.358 17.6 110.774 17.44 110.15 17.44C109.526 17.44 108.95 17.592 108.422 17.896C107.894 18.2 107.462 18.648 107.126 19.24C106.806 19.816 106.646 20.504 106.646 21.304C106.646 22.104 106.806 22.808 107.126 23.416C107.462 24.008 107.894 24.464 108.422 24.784C108.966 25.104 109.542 25.264 110.15 25.264C110.774 25.264 111.358 25.112 111.902 24.808C112.446 24.488 112.878 24.04 113.198 23.464C113.518 22.872 113.678 22.168 113.678 21.352ZM144.326 11.248V28H140.966V17.104L136.478 28H133.934L129.422 17.104V28H126.062V11.248H129.878L135.206 23.704L140.534 11.248H144.326ZM153.552 28.216C152.272 28.216 151.12 27.936 150.096 27.376C149.072 26.8 148.264 25.992 147.672 24.952C147.096 23.912 146.808 22.712 146.808 21.352C146.808 19.992 147.104 18.792 147.696 17.752C148.304 16.712 149.128 15.912 150.168 15.352C151.208 14.776 152.368 14.488 153.648 14.488C154.928 14.488 156.088 14.776 157.128 15.352C158.168 15.912 158.984 16.712 159.576 17.752C160.184 18.792 160.488 19.992 160.488 21.352C160.488 22.712 160.176 23.912 159.552 24.952C158.944 25.992 158.112 26.8 157.056 27.376C156.016 27.936 154.848 28.216 153.552 28.216ZM153.552 25.288C154.16 25.288 154.728 25.144 155.256 24.856C155.8 24.552 156.232 24.104 156.552 23.512C156.872 22.92 157.032 22.2 157.032 21.352C157.032 20.088 156.696 19.12 156.024 18.448C155.368 17.76 154.56 17.416 153.6 17.416C152.64 17.416 151.832 17.76 151.176 18.448C150.536 19.12 150.216 20.088 150.216 21.352C150.216 22.616 150.528 23.592 151.152 24.28C151.792 24.952 152.592 25.288 153.552 25.288ZM170.321 14.512C171.905 14.512 173.185 15.016 174.161 16.024C175.137 17.016 175.625 18.408 175.625 20.2V28H172.265V20.656C172.265 19.6 172.001 18.792 171.473 18.232C170.945 17.656 170.225 17.368 169.313 17.368C168.385 17.368 167.649 17.656 167.105 18.232C166.577 18.792 166.313 19.6 166.313 20.656V28H162.953V14.704H166.313V16.36C166.761 15.784 167.329 15.336 168.017 15.016C168.721 14.68 169.489 14.512 170.321 14.512ZM191.18 21.064C191.18 21.544 191.148 21.976 191.084 22.36H181.364C181.444 23.32 181.78 24.072 182.372 24.616C182.964 25.16 183.692 25.432 184.556 25.432C185.804 25.432 186.692 24.896 187.22 23.824H190.844C190.46 25.104 189.724 26.16 188.636 26.992C187.548 27.808 186.212 28.216 184.628 28.216C183.348 28.216 182.196 27.936 181.172 27.376C180.164 26.8 179.372 25.992 178.796 24.952C178.236 23.912 177.956 22.712 177.956 21.352C177.956 19.976 178.236 18.768 178.796 17.728C179.356 16.688 180.14 15.888 181.148 15.328C182.156 14.768 183.316 14.488 184.628 14.488C185.892 14.488 187.02 14.76 188.012 15.304C189.02 15.848 189.796 16.624 190.34 17.632C190.9 18.624 191.18 19.768 191.18 21.064ZM187.7 20.104C187.684 19.24 187.372 18.552 186.764 18.04C186.156 17.512 185.412 17.248 184.532 17.248C183.7 17.248 182.996 17.504 182.42 18.016C181.86 18.512 181.516 19.208 181.388 20.104H187.7ZM206.353 14.704L198.121 34.288H194.545L197.425 27.664L192.097 14.704H195.865L199.297 23.992L202.777 14.704H206.353Z" fill="white"/>
</svg>
